<svg width="56" height="532" viewBox="0 0 56 532" fill="none" xmlns="http://www.w3.org/2000/svg">
<path d="M48 450H36C32.7 450 30 452.7 30 456V468C30 471.3 32.7 474 36 474H48C51.3 474 54 471.3 54 468V456C54 452.7 51.3 450 48 450ZM49 469H35C34.4 469 34 468.6 34 468C34 467.4 34.4 467 35 467H49C49.6 467 50 467.4 50 468C50 468.6 49.6 469 49 469ZM49 465H35C34.4 465 34 464.6 34 464C34 463.4 34.4 463 35 463H49C49.6 463 50 463.4 50 464C50 464.6 49.6 465 49 465ZM49 461H35C34.4 461 34 460.6 34 460C34 459.4 34.4 459 35 459H49C49.6 459 50 459.4 50 460C50 460.6 49.6 461 49 461ZM49 457H35C34.4 457 34 456.6 34 456C34 455.4 34.4 455 35 455H49C49.6 455 50 455.4 50 456C50 456.6 49.6 457 49 457Z" fill="white"/>
<path d="M20 474H8C4.6 474 2 471.4 2 468V456C2 452.6 4.6 450 8 450H20C23.4 450 26 452.6 26 456V468C26 471.4 23.4 474 20 474ZM8 452C5.8 452 4 453.8 4 456V468C4 470.2 5.8 472 8 472H20C22.2 472 24 470.2 24 468V456C24 453.8 22.2 452 20 452H8Z" fill="white"/>
<path d="M21 461H7C6.4 461 6 460.6 6 460C6 459.4 6.4 459 7 459H21C21.6 459 22 459.4 22 460C22 460.6 21.6 461 21 461Z" fill="white"/>
<path d="M21 465H7C6.4 465 6 464.6 6 464C6 463.4 6.4 463 7 463H21C21.6 463 22 463.4 22 464C22 464.6 21.6 465 21 465Z" fill="white"/>
<path d="M21 469H7C6.4 469 6 468.6 6 468C6 467.4 6.4 467 7 467H21C21.6 467 22 467.4 22 468C22 468.6 21.6 469 21 469Z" fill="white"/>
<path d="M21 457H7C6.4 457 6 456.6 6 456C6 455.4 6.4 455 7 455H21C21.6 455 22 455.4 22 456C22 456.6 21.6 457 21 457Z" fill="white"/>
<path d="M12 413C7 413 3 409 3 404C3 399 7 395 12 395C17 395 21 399 21 404C21 409 17 413 12 413ZM12 397C8.1 397 5 400.1 5 404C5 407.9 8.1 411 12 411C15.9 411 19 407.9 19 404C19 400.1 15.9 397 12 397Z" fill="#BDBEBE"/>
<path d="M24 417C23.7 417 23.5 416.9 23.3 416.7L17.3 410.7C16.9 410.3 16.9 409.7 17.3 409.3C17.7 408.9 18.3 408.9 18.7 409.3L24.7 415.3C25.1 415.7 25.1 416.3 24.7 416.7C24.5 416.9 24.3 417 24 417Z" fill="#BDBEBE"/>
<path d="M16 405C15.4 405 15 404.6 15 404C15 402.3 13.7 401 12 401C11.4 401 11 400.6 11 400C11 399.4 11.4 399 12 399C14.8 399 17 401.2 17 404C17 404.6 16.6 405 16 405Z" fill="#BDBEBE"/>
<path d="M40 413C35 413 31 409 31 404C31 399 35 395 40 395C45 395 49 399 49 404C49 409 45 413 40 413ZM40 397C36.1 397 33 400.1 33 404C33 407.9 36.1 411 40 411C43.9 411 47 407.9 47 404C47 400.1 43.9 397 40 397Z" fill="white"/>
<path d="M52 417C51.7 417 51.5 416.9 51.3 416.7L45.3 410.7C44.9 410.3 44.9 409.7 45.3 409.3C45.7 408.9 46.3 408.9 46.7 409.3L52.7 415.3C53.1 415.7 53.1 416.3 52.7 416.7C52.5 416.9 52.3 417 52 417Z" fill="white"/>
<path d="M44 405C43.4 405 43 404.6 43 404C43 402.3 41.7 401 40 401C39.4 401 39 400.6 39 400C39 399.4 39.4 399 40 399C42.8 399 45 401.2 45 404C45 404.6 44.6 405 44 405Z" fill="white"/>
<path d="M40 133C35 133 31 129 31 124C31 119 35 115 40 115C45 115 49 119 49 124C49 129 45 133 40 133ZM40 117C36.1 117 33 120.1 33 124C33 127.9 36.1 131 40 131C43.9 131 47 127.9 47 124C47 120.1 43.9 117 40 117Z" fill="white"/>
<path d="M52 137C51.7 137 51.5 136.9 51.3 136.7L45.3 130.7C44.9 130.3 44.9 129.7 45.3 129.3C45.7 128.9 46.3 128.9 46.7 129.3L52.7 135.3C53.1 135.7 53.1 136.3 52.7 136.7C52.5 136.9 52.3 137 52 137Z" fill="white"/>
<path d="M44 125C43.4 125 43 124.6 43 124C43 122.3 41.7 121 40 121C39.4 121 39 120.6 39 120C39 119.4 39.4 119 40 119C42.8 119 45 121.2 45 124C45 124.6 44.6 125 44 125Z" fill="white"/>
<path d="M12 133C7 133 3 129 3 124C3 119 7 115 12 115C17 115 21 119 21 124C21 129 17 133 12 133ZM12 117C8.1 117 5 120.1 5 124C5 127.9 8.1 131 12 131C15.9 131 19 127.9 19 124C19 120.1 15.9 117 12 117Z" fill="#BDBEBE"/>
<path d="M24 137C23.7 137 23.5 136.9 23.3 136.7L17.3 130.7C16.9 130.3 16.9 129.7 17.3 129.3C17.7 128.9 18.3 128.9 18.7 129.3L24.7 135.3C25.1 135.7 25.1 136.3 24.7 136.7C24.5 136.9 24.3 137 24 137Z" fill="#BDBEBE"/>
<path d="M16 125C15.4 125 15 124.6 15 124C15 122.3 13.7 121 12 121C11.4 121 11 120.6 11 120C11 119.4 11.4 119 12 119C14.8 119 17 121.2 17 124C17 124.6 16.6 125 16 125Z" fill="#BDBEBE"/>
<path d="M53 96H51.8C51.5 94.7 51 93.5 50.3 92.5L51.2 91.6C51.6 91.2 51.6 90.6 51.2 90.2L49.8 88.8C49.4 88.4 48.8 88.4 48.4 88.8L47.5 89.7C46.5 89 45.3 88.5 44 88.2V87C44 86.4 43.6 86 43 86H41C40.4 86 40 86.4 40 87V88.2C38.7 88.5 37.5 89 36.5 89.7L35.6 88.8C35.2 88.4 34.6 88.4 34.2 88.8L32.8 90.2C32.4 90.6 32.4 91.2 32.8 91.6L33.7 92.5C33 93.5 32.5 94.7 32.2 96H31C30.4 96 30 96.4 30 97V99C30 99.6 30.4 100 31 100H32.2C32.5 101.3 33 102.5 33.7 103.5L32.8 104.4C32.4 104.8 32.4 105.4 32.8 105.8L34.2 107.2C34.6 107.6 35.2 107.6 35.6 107.2L36.5 106.3C37.5 107 38.7 107.5 40 107.8V109C40 109.6 40.4 110 41 110H43C43.6 110 44 109.6 44 109V107.8C45.3 107.5 46.5 107 47.5 106.3L48.4 107.2C48.8 107.6 49.4 107.6 49.8 107.2L51.2 105.8C51.6 105.4 51.6 104.8 51.2 104.4L50.3 103.5C51 102.5 51.5 101.3 51.8 100H53C53.6 100 54 99.6 54 99V97C54 96.4 53.6 96 53 96ZM42 104C38.7 104 36 101.3 36 98C36 94.7 38.7 92 42 92C45.3 92 48 94.7 48 98C48 101.3 45.3 104 42 104Z" fill="white"/>
<path d="M16 110H12C11.4 110 11 109.6 11 109V107.5C10.4 107.3 9.9 107.1 9.4 106.8L8.5 107.7C8.1 108.1 7.5 108.1 7.1 107.7L4.2 105C3.8 104.6 3.8 104 4.2 103.6L5.1 102.7C4.8 102.2 4.6 101.6 4.4 101.1H3C2.4 101.1 2 100.7 2 100.1V96.1C2 95.5 2.4 95.1 3 95.1H4.5C4.7 94.5 4.9 94 5.2 93.5L4.3 92.6C3.9 92.2 3.9 91.6 4.3 91.2L7 88.2C7.2 88 7.4 87.9 7.7 87.9C8 87.9 8.2 88 8.4 88.2L9.3 89.1C9.8 88.8 10.4 88.6 10.9 88.4V87C10.9 86.4 11.3 86 11.9 86H15.9C16.5 86 16.9 86.4 16.9 87V88.5C17.5 88.7 18 88.9 18.5 89.2L19.4 88.3C19.8 87.9 20.4 87.9 20.8 88.3L23.6 91.1C24 91.5 24 92.1 23.6 92.5L22.7 93.4C23 93.9 23.2 94.5 23.4 95H25C25.6 95 26 95.4 26 96V100C26 100.6 25.6 101 25 101H23.5C23.3 101.6 23.1 102.1 22.8 102.6L23.7 103.5C24.1 103.9 24.1 104.5 23.7 104.9L20.9 107.7C20.7 107.9 20.5 108 20.2 108C19.9 108 19.7 107.9 19.5 107.7L18.6 106.8C18.1 107.1 17.5 107.3 17 107.5V109C17 109.6 16.6 110 16 110ZM13 108H15V106.8C15 106.3 15.3 105.9 15.8 105.8C16.7 105.6 17.5 105.3 18.3 104.8C18.7 104.6 19.2 104.6 19.5 104.9L20.3 105.7L21.7 104.3L20.9 103.5C20.6 103.2 20.5 102.7 20.8 102.3C21.3 101.5 21.6 100.7 21.8 99.8C21.9 99.3 22.3 99 22.8 99H24V97H22.8C22.3 97 21.9 96.7 21.8 96.2C21.6 95.3 21.3 94.5 20.8 93.7C20.6 93.3 20.6 92.8 20.9 92.5L21.7 91.7L20.3 90.3L19.5 91.1C19.2 91.4 18.7 91.5 18.3 91.2C17.5 90.7 16.7 90.4 15.8 90.2C15.3 90.1 15 89.7 15 89.2V88H13V89.2C13 89.7 12.7 90.1 12.2 90.2C11.3 90.4 10.5 90.7 9.7 91.2C9.3 91.4 8.8 91.4 8.5 91.1L7.7 90.3L6.3 91.7L7.1 92.5C7.4 92.8 7.5 93.3 7.2 93.7C6.7 94.5 6.4 95.3 6.2 96.2C6.1 96.7 5.7 97 5.2 97H4V99H5.2C5.7 99 6.1 99.3 6.2 99.8C6.4 100.7 6.7 101.5 7.2 102.3C7.4 102.7 7.4 103.2 7.1 103.5L6.3 104.3L7.7 105.7L8.5 104.9C8.8 104.6 9.3 104.5 9.7 104.8C10.5 105.3 11.3 105.6 12.2 105.8C12.7 105.9 13 106.3 13 106.8V108V108Z" fill="white"/>
<path d="M14 104C10.7 104 8 101.3 8 98C8 94.7 10.7 92 14 92C17.3 92 20 94.7 20 98C20 101.3 17.3 104 14 104ZM14 94C11.8 94 10 95.8 10 98C10 100.2 11.8 102 14 102C16.2 102 18 100.2 18 98C18 95.8 16.2 94 14 94Z" fill="white"/>
<path d="M51 65H49L47 63V61L44 58L30 72L33 75H35L37 77V79L40 82L54 68L51 65ZM44.7 72.7C44.5 72.9 44.3 73 44 73C43.7 73 43.5 72.9 43.3 72.7L40 69.4L38.7 70.7C38.5 70.9 38.3 71 38 71C37.7 71 37.5 70.9 37.3 70.7C36.9 70.3 36.9 69.7 37.3 69.3L41.3 65.3C41.7 64.9 42.3 64.9 42.7 65.3C43.1 65.7 43.1 66.3 42.7 66.7L41.4 68L44.7 71.3C45.1 71.7 45.1 72.3 44.7 72.7Z" fill="#CB9E71"/>
<path d="M12 82C11.7 82 11.5 81.9 11.3 81.7L8.3 78.7C8.1 78.5 8 78.3 8 78V76.4L7.6 76H6C5.7 76 5.5 75.9 5.3 75.7L2.3 72.7C1.9 72.3 1.9 71.7 2.3 71.3L15.3 58.3C15.7 57.9 16.3 57.9 16.7 58.3L19.7 61.3C19.9 61.5 20 61.7 20 62V63.6L20.4 64H22C22.3 64 22.5 64.1 22.7 64.3L25.7 67.3C26.1 67.7 26.1 68.3 25.7 68.7L12.7 81.7C12.5 81.9 12.3 82 12 82ZM10 77.6L12 79.6L23.6 68L21.6 66H20C19.7 66 19.5 65.9 19.3 65.7L18.3 64.7C18.1 64.5 18 64.3 18 64V62.4L16 60.4L4.4 72L6.4 74H8C8.3 74 8.5 74.1 8.7 74.3L9.7 75.3C9.9 75.5 10 75.7 10 76V77.6Z" fill="#CB9E71"/>
<path d="M10 71C9.7 71 9.5 70.9 9.3 70.7C8.9 70.3 8.9 69.7 9.3 69.3L13.3 65.3C13.7 64.9 14.3 64.9 14.7 65.3C15.1 65.7 15.1 66.3 14.7 66.7L10.7 70.7C10.5 70.9 10.3 71 10 71Z" fill="#CB9E71"/>
<path d="M16 73C15.7 73 15.5 72.9 15.3 72.7L11.3 68.7C10.9 68.3 10.9 67.7 11.3 67.3C11.7 66.9 12.3 66.9 12.7 67.3L16.7 71.3C17.1 71.7 17.1 72.3 16.7 72.7C16.5 72.9 16.3 73 16 73Z" fill="#CB9E71"/>
<path d="M37 39V41H39.6C39.7 40.5 39.7 39.5 39.6 39H37Z" fill="white"/>
<path d="M42 30C35.4 30 30 35.4 30 42C30 48.6 35.4 54 42 54C48.6 54 54 48.6 54 42C54 35.4 48.6 30 42 30ZM47 47V48C47 48.6 46.6 49 46 49C45.4 49 45 48.6 45 48V47H42C41.8 47 41.6 46.9 41.4 46.8L37 43.3V46C37 46.6 36.6 47 36 47C35.4 47 35 46.6 35 46V38C35 37.4 35.4 37 36 37H40C41.1 37 41.7 38.1 41.7 40C41.7 40.6 41.6 41.2 41.5 41.7C41.1 42.9 40.3 43 40 43H39.9L42.4 45H47C47.3 45 47.5 44.5 47.5 44C47.5 43.6 47.4 43 47 43H45C43.6 43 42.5 41.7 42.5 40C42.5 39.3 42.7 38.6 43 38.1C43.5 37.4 44.2 37 45 37V36C45 35.4 45.4 35 46 35C46.6 35 47 35.4 47 36V37H48C48.6 37 49 37.4 49 38C49 38.6 48.6 39 48 39H45C44.9 39 44.8 39 44.7 39.2C44.6 39.4 44.5 39.7 44.5 40C44.5 40.4 44.7 41 45 41H47C48.4 41 49.5 42.3 49.5 44C49.5 45.7 48.4 47 47 47Z" fill="white"/>
<path d="M14 54C7.4 54 2 48.6 2 42C2 35.4 7.4 30 14 30C20.6 30 26 35.4 26 42C26 48.6 20.6 54 14 54ZM14 32C8.5 32 4 36.5 4 42C4 47.5 8.5 52 14 52C19.5 52 24 47.5 24 42C24 36.5 19.5 32 14 32Z" fill="white"/>
<path d="M19 47H14C13.8 47 13.6 46.9 13.4 46.8L9 43.3V46C9 46.6 8.6 47 8 47C7.4 47 7 46.6 7 46V38C7 37.4 7.4 37 8 37H12C13.1 37 13.7 38.1 13.7 40C13.7 40.6 13.6 41.2 13.5 41.7C13.1 42.9 12.3 43 12 43H11.9L14.4 45H19C19.3 45 19.5 44.5 19.5 44C19.5 43.6 19.4 43 19 43H17C15.6 43 14.5 41.7 14.5 40C14.5 39.3 14.7 38.6 15 38.1C15.5 37.4 16.2 37 17 37H20C20.6 37 21 37.4 21 38C21 38.6 20.6 39 20 39H17C16.9 39 16.8 39 16.7 39.2C16.6 39.4 16.5 39.7 16.5 40C16.5 40.4 16.7 41 17 41H19C20.4 41 21.5 42.3 21.5 44C21.5 45.7 20.4 47 19 47ZM9 41H11.6C11.7 40.5 11.7 39.5 11.6 39H9V41Z" fill="white"/>
<path d="M18 38C17.4 38 17 37.6 17 37V36C17 35.4 17.4 35 18 35C18.6 35 19 35.4 19 36V37C19 37.6 18.6 38 18 38Z" fill="white"/>
<path d="M18 49C17.4 49 17 48.6 17 48V47C17 46.4 17.4 46 18 46C18.6 46 19 46.4 19 47V48C19 48.6 18.6 49 18 49Z" fill="white"/>
<path d="M50 10H34C33.4 10 33 9.6 33 9C33 8.4 33.4 8 34 8H50C50.6 8 51 8.4 51 9C51 9.6 50.6 10 50 10Z" fill="white"/>
<path d="M50 15H34C33.4 15 33 14.6 33 14C33 13.4 33.4 13 34 13H50C50.6 13 51 13.4 51 14C51 14.6 50.6 15 50 15Z" fill="white"/>
<path d="M50 20H34C33.4 20 33 19.6 33 19C33 18.4 33.4 18 34 18H50C50.6 18 51 18.4 51 19C51 19.6 50.6 20 50 20Z" fill="white"/>
<path d="M22 10H6C5.4 10 5 9.6 5 9C5 8.4 5.4 8 6 8H22C22.6 8 23 8.4 23 9C23 9.6 22.6 10 22 10Z" fill="white"/>
<path d="M22 15H6C5.4 15 5 14.6 5 14C5 13.4 5.4 13 6 13H22C22.6 13 23 13.4 23 14C23 14.6 22.6 15 22 15Z" fill="white"/>
<path d="M22 20H6C5.4 20 5 19.6 5 19C5 18.4 5.4 18 6 18H22C22.6 18 23 18.4 23 19C23 19.6 22.6 20 22 20Z" fill="white"/>
<path d="M43.5 511C43.5 510.2 42.8 509.5 42 509.5C41.2 509.5 40.5 510.2 40.5 511H39C38.2 511 37.5 511.7 37.5 512.5C37.5 513.3 38.2 514 39 514H45C45.8 514 46.5 513.3 46.5 512.5C46.5 511.7 45.8 511 45 511H43.5Z" fill="#7048E1"/>
<path d="M47 522C46.4 522 46 522.4 46 523C46 523.6 46.4 524 47 524H50.6L46.3 528.3C45.9 528.7 45.9 529.3 46.3 529.7C46.5 529.9 46.8 530 47 530C47.2 530 47.5 529.9 47.7 529.7L52 525.4V528.9C52 529.5 52.4 529.9 53 529.9C53.6 529.9 54 529.5 54 528.9V522H47Z" fill="#7048E1"/>
<path d="M44.2 524H38V522H44.2C44.6 521 45.4 520.3 46.5 520.1C46.4 520.1 46.2 520 46 520H38C36.9 520 36 520.9 36 522V524C36 525.1 36.9 526 38 526H45.8L46 525.8C45.1 525.5 44.5 524.8 44.2 524Z" fill="#7048E1"/>
<path d="M34 528V508H50V520H52V507.9C52 506.8 51.1 506 50.1 506H33.9C32.8 506 32 506.9 32 507.9V528.1C32 529.2 32.9 530 33.9 530H44.2C44.1 529.7 44 529.3 44 529C44 528.7 44.1 528.3 44.2 528H34Z" fill="#7048E1"/>
<path d="M15.5 511C15.5 510.2 14.8 509.5 14 509.5C13.2 509.5 12.5 510.2 12.5 511H11C10.2 511 9.5 511.7 9.5 512.5C9.5 513.3 10.2 514 11 514H17C17.8 514 18.5 513.3 18.5 512.5C18.5 511.7 17.8 511 17 511H15.5Z" fill="#BDBEBE"/>
<path d="M19 522C18.4 522 18 522.4 18 523C18 523.6 18.4 524 19 524H22.6L18.3 528.3C17.9 528.7 17.9 529.3 18.3 529.7C18.5 529.9 18.8 530 19 530C19.2 530 19.5 529.9 19.7 529.7L24 525.4V528.9C24 529.5 24.4 529.9 25 529.9C25.6 529.9 26 529.5 26 528.9V522H19Z" fill="#BDBEBE"/>
<path d="M16.2 524H10V522H16.2C16.6 521 17.4 520.3 18.5 520.1C18.4 520.1 18.2 520 18 520H10C8.9 520 8 520.9 8 522V524C8 525.1 8.9 526 10 526H17.8L18 525.8C17.1 525.5 16.5 524.8 16.2 524Z" fill="#BDBEBE"/>
<path d="M6 528V508H22V520H24V507.9C24 506.8 23.1 506 22.1 506H5.9C4.8 506 4 506.9 4 507.9V528.1C4 529.2 4.9 530 5.9 530H16.2C16.1 529.7 16 529.3 16 529C16 528.7 16.1 528.3 16.2 528H6Z" fill="#BDBEBE"/>
<path d="M42 502C41.4 502 40.9 501.7 40.5 501.3C40.2 500.9 40.1 500.4 40.2 500L41.6 493.1L31.4 494.4L40.4 478.9C40.6 478.4 41.3 478 41.9 478C42.5 478 43 478.3 43.4 478.7C43.7 479.1 43.8 479.6 43.7 480L42.3 486.8L52.5 485.5L43.6 501C43.5 501.3 43 502 42 502ZM44.2 490.7L42.5 498.9L48.7 488.1L39.7 489.2L41.4 481L35.2 491.8L44.2 490.7ZM42.2 479.7C42.2 479.8 42.2 479.7 42.2 479.7V479.7Z" fill="#00A2FF"/>
<path d="M14.1 502C13.5 502 13 501.7 12.6 501.3C12.3 500.9 12.2 500.4 12.3 500L13.7 493.1L3.5 494.4L12.5 478.9C12.7 478.4 13.4 478 14 478C14.6 478 15.1 478.3 15.5 478.7C15.8 479.1 15.9 479.6 15.8 480L14.4 486.8L24.6 485.5L15.7 501C15.4 501.3 14.9 502 14.1 502ZM16.2 490.7L14.5 498.9L20.7 488.1L11.7 489.2L13.4 481L7.2 491.8L16.2 490.7ZM14.2 479.7C14.2 479.8 14.2 479.7 14.2 479.7V479.7Z" fill="#BDBEBE"/>
<path d="M36.5 446C37.3284 446 38 445.328 38 444.5C38 443.672 37.3284 443 36.5 443C35.6716 443 35 443.672 35 444.5C35 445.328 35.6716 446 36.5 446Z" fill="#7048E1"/>
<path d="M46 439C46 439.6 46.4 440 47 440H50.6L46.3 444.3C45.9 444.7 45.9 445.3 46.3 445.7C46.5 445.9 46.8 446 47 446C47.2 446 47.5 445.9 47.7 445.7L52 441.4V444.9C52 445.5 52.4 445.9 53 445.9C53.6 445.9 54 445.5 54 444.9V438H47C46.4 438 46 438.4 46 439Z" fill="#7048E1"/>
<path d="M37.1 425.8L36.3 423.3L31.8 422.5C31.3 422.4 30.7 422.8 30.6 423.3C30.5 423.8 30.9 424.4 31.4 424.5L34.7 425.1L37.9 435.6L36.5 439.2C36.3 439.8 36.3 440.5 36.7 441.1C37.1 441.6 37.7 442 38.4 442H45.7L45.9 441.8C45.1 441.5 44.4 440.8 44.1 440H38.4L39.8 436.5L52.9 434.3C53.5 434.2 54 433.6 54 433V428.2L37.1 425.8ZM52 432.3L39.7 434.3L37.8 427.8L52 429.8V432.3Z" fill="#7048E1"/>
<path d="M8.5 446C9.32843 446 10 445.328 10 444.5C10 443.672 9.32843 443 8.5 443C7.67157 443 7 443.672 7 444.5C7 445.328 7.67157 446 8.5 446Z" fill="#BDBEBE"/>
<path d="M18 439C18 439.6 18.4 440 19 440H22.6L18.3 444.3C17.9 444.7 17.9 445.3 18.3 445.7C18.5 445.9 18.8 446 19 446C19.2 446 19.5 445.9 19.7 445.7L24 441.4V444.9C24 445.5 24.4 445.9 25 445.9C25.6 445.9 26 445.5 26 444.9V438H19C18.4 438 18 438.4 18 439Z" fill="#BDBEBE"/>
<path d="M9.10002 425.8L8.30002 423.3L3.80002 422.5C3.30002 422.4 2.70002 422.8 2.60002 423.3C2.50002 423.8 2.90002 424.4 3.40002 424.5L6.70002 425.1L9.90002 435.6L8.50002 439.2C8.30002 439.8 8.30002 440.5 8.70002 441.1C9.10002 441.6 9.70002 442 10.4 442H17.7L17.9 441.8C17.1 441.5 16.4 440.8 16.1 440H10.4L11.8 436.5L24.9 434.3C25.5 434.2 26 433.6 26 433V428.2L9.10002 425.8ZM24 432.3L11.7 434.3L9.80002 427.9L24 429.9V432.3Z" fill="#BDBEBE"/>
<path d="M47 382C46.4 382 46 382.4 46 383C46 383.6 46.4 384 47 384H50.6L46.3 388.3C45.9 388.7 45.9 389.3 46.3 389.7C46.5 389.9 46.8 390 47 390C47.2 390 47.5 389.9 47.7 389.7L52 385.4V388.9C52 389.5 52.4 389.9 53 389.9C53.6 389.9 54 389.5 54 388.9V382H47Z" fill="#7048E1"/>
<path d="M33 385.8V369.2C33 369.1 33.1 369 33.2 369H50.8C50.9 369 51 369.1 51 369.2V380H53V369.2C53 368 52 367 50.8 367H33.2C32 367 31 368 31 369.2V385.8C31 387 32 388 33.2 388H44.2C44.3 387.6 44.6 387.2 44.9 386.9L45.8 386H33.2C33.1 386 33 385.9 33 385.8Z" fill="#7048E1"/>
<path d="M42 378H36C35.4 378 35 378.4 35 379C35 379.6 35.4 380 36 380H42C42.6 380 43 379.6 43 379C43 378.4 42.6 378 42 378Z" fill="#7048E1"/>
<path d="M42 382H36C35.4 382 35 382.4 35 383C35 383.6 35.4 384 36 384H42C42.6 384 43 383.6 43 383C43 382.4 42.6 382 42 382Z" fill="#7048E1"/>
<path d="M49 373.9V373.1C49 371.9 48.1 371 46.9 371H37.1C35.9 371 35 371.9 35 373.1V373.9C35 375.1 35.9 376 37.1 376H46.9C48.1 376 49 375.1 49 373.9ZM37 373.9V373.1C37 373 37 373 37.1 373H46.9C47 373 47 373 47 373.1V373.9C47 374 47 374 46.9 374L37 373.9C37 374 37 374 37 373.9Z" fill="#7048E1"/>
<path d="M19 382C18.4 382 18 382.4 18 383C18 383.6 18.4 384 19 384H22.6L18.3 388.3C17.9 388.7 17.9 389.3 18.3 389.7C18.5 389.9 18.8 390 19 390C19.2 390 19.5 389.9 19.7 389.7L24 385.4V388.9C24 389.5 24.4 389.9 25 389.9C25.6 389.9 26 389.5 26 388.9V382H19Z" fill="#BDBEBE"/>
<path d="M5 385.8V369.2C5 369.1 5.1 369 5.2 369H22.8C22.9 369 23 369.1 23 369.2V380H25V369.2C25 368 24 367 22.8 367H5.2C4 367 3 368 3 369.2V385.8C3 387 4 388 5.2 388H16.2C16.3 387.6 16.6 387.2 16.9 386.9L17.8 386H5.2C5.1 386 5 385.9 5 385.8Z" fill="#BDBEBE"/>
<path d="M14 378H8C7.4 378 7 378.4 7 379C7 379.6 7.4 380 8 380H14C14.6 380 15 379.6 15 379C15 378.4 14.6 378 14 378Z" fill="#BDBEBE"/>
<path d="M14 382H8C7.4 382 7 382.4 7 383C7 383.6 7.4 384 8 384H14C14.6 384 15 383.6 15 383C15 382.4 14.6 382 14 382Z" fill="#BDBEBE"/>
<path d="M21 373.9V373.1C21 371.9 20.1 371 18.9 371H9.1C7.9 371 7 371.9 7 373.1V373.9C7 375.1 7.9 376 9.1 376H18.9C20.1 376 21 375.1 21 373.9ZM9 373.9V373.1C9 373 9 373 9.1 373H18.9C19 373 19 373 19 373.1V373.9C19 374 19 374 18.9 374L9 373.9C9 374 9 374 9 373.9Z" fill="#BDBEBE"/>
<path d="M54 354.9V354.4C54 354.1 54 353.3 53.9 352.4C53.9 350.4 53.8 349 53.7 348.6C53.6 347.3 52.6 346 51.4 345.6C51.6 345.3 51.8 344.9 51.8 344.5C51.9 343.5 51.9 342.6 51.8 341.5C51.6 340.3 50.5 339.3 49.4 339.1C48.4 339 47.4 339 46.5 339.1C45.3 339.3 44.2 340.4 44 341.6C44 341.8 44 342.1 44 342.3C43.8 342.2 43.6 342.2 43.4 342.1C42.4 342 41.4 342 40.5 342.1C40.3 342.1 40.1 342.2 39.9 342.3C39.9 342 39.9 341.8 39.9 341.5C39.7 340.3 38.6 339.3 37.5 339.1C36.5 339 35.5 339 34.6 339.1C33.4 339.3 32.3 340.4 32.1 341.6C32 342.6 32 343.5 32.1 344.5C32.2 344.9 32.3 345.2 32.5 345.5C31.4 345.8 30.4 347.2 30.2 348.5C30.1 349 30.1 350.4 30 352.3C30 353.2 30 354 29.9 354.3V354.8L30.3 355.1C31.6 356.2 33.2 356.8 35 356.9C35 357.8 35 358.6 34.9 358.9V359.4L35.3 359.7C37 361.2 39.3 361.9 42 361.9C44.7 361.9 46.9 361.2 48.6 359.7L49 359.4V358.9C49 358.6 49 357.9 48.9 356.9C50.8 356.8 52.3 356.1 53.6 355L54 354.9ZM46.1 341.9C46.1 341.6 46.6 341.2 46.8 341.2C47.2 341.2 47.6 341.1 48 341.1C48.4 341.1 48.8 341.1 49.2 341.2C49.5 341.2 49.9 341.7 49.9 341.9C50 342.7 50 343.5 49.9 344.3C49.9 344.6 49.4 345 49.2 345C48.4 345.1 47.6 345.1 46.8 345C46.5 345 46.1 344.5 46.1 344.3C46 343.5 46 342.7 46.1 341.9ZM40.1 344.9C40.1 344.6 40.6 344.2 40.8 344.2C41.2 344.2 41.6 344.1 42 344.1C42.4 344.1 42.8 344.1 43.2 344.2C43.5 344.2 43.9 344.7 43.9 344.9C44 345.7 44 346.5 43.9 347.3C43.9 347.6 43.4 348 43.2 348C42.4 348.1 41.6 348.1 40.8 348C40.5 348 40.1 347.5 40.1 347.3C40 346.5 40 345.7 40.1 344.9ZM34.1 341.9C34.1 341.6 34.6 341.2 34.8 341.2C35.2 341.2 35.6 341.1 36 341.1C36.4 341.1 36.8 341.1 37.2 341.2C37.5 341.2 37.9 341.7 37.9 341.9C38 342.7 38 343.5 37.9 344.3C37.9 344.6 37.4 345 37.2 345C36.4 345.1 35.6 345.1 34.8 345C34.5 345 34.1 344.5 34.1 344.3C34 343.5 34 342.7 34.1 341.9ZM35.3 352.1C35.2 352.5 35.2 353.6 35.2 355C34 354.9 33 354.5 32.1 353.9C32.1 353.5 32.1 353 32.1 352.4C32.1 351.1 32.2 349.2 32.2 348.8C32.3 348.1 32.8 347.5 33.1 347.5C34.8 347 36.5 347 38.1 347.3C38.1 347.4 38.1 347.5 38.1 347.5C38.1 347.8 38.3 348.2 38.5 348.5C38.3 348.5 38.1 348.6 38 348.6C36.6 349 35.5 350.5 35.3 352.1ZM42 360.1C40 360.1 38.3 359.6 37 358.6C37 358.1 37 357.4 37.1 356.7C37.1 355.2 37.2 352.8 37.3 352.3C37.4 351.4 38.1 350.6 38.5 350.5C40.9 349.9 43.3 349.9 45.6 350.5C46.1 350.7 46.8 351.5 46.9 352.3C47 352.8 47 355.1 47.1 356.6C47.1 357.4 47.1 358.1 47.2 358.5C45.6 359.6 44 360.1 42 360.1ZM49 355C49 353.5 48.9 352.5 48.9 352.1C48.7 350.6 47.6 349.1 46.3 348.6C46.1 348.6 45.9 348.5 45.8 348.5C46 348.2 46.1 347.9 46.2 347.5C46.2 347.4 46.2 347.4 46.2 347.3C47.9 347 49.5 347 51.1 347.5C51.5 347.6 52 348.3 52 348.9C52.1 349.3 52.1 351.2 52.1 352.5C52.1 353.1 52.1 353.6 52.1 354C51.1 354.6 50.1 354.9 49 355Z" fill="#00A2FF"/>
<path d="M26 354.9V354.4C26 354.1 26 353.3 25.9 352.4C25.9 350.4 25.8 349 25.7 348.6C25.6 347.3 24.6 346 23.4 345.6C23.6 345.3 23.8 344.9 23.8 344.5C23.9 343.5 23.9 342.6 23.8 341.5C23.6 340.3 22.5 339.3 21.4 339.1C20.4 339 19.4 339 18.5 339.1C17.3 339.3 16.2 340.4 16 341.6C16 341.8 16 342.1 16 342.3C15.8 342.2 15.6 342.2 15.4 342.1C14.4 342 13.4 342 12.5 342.1C12.3 342.1 12.1 342.2 11.9 342.3C11.9 342 11.9 341.8 11.9 341.5C11.7 340.3 10.6 339.3 9.50002 339.1C8.50002 339 7.50002 339 6.60002 339.1C5.40002 339.3 4.30002 340.4 4.10002 341.6C4.00002 342.6 4.00002 343.5 4.10002 344.5C4.20002 344.9 4.30002 345.2 4.50002 345.5C3.40002 345.8 2.40002 347.2 2.20002 348.5C2.10002 349 2.10002 350.4 2.00002 352.3C2.00002 353.2 2.00002 354 1.90002 354.3V354.8L2.30002 355.1C3.60002 356.2 5.20002 356.8 7.00002 356.9C7.00002 357.8 7.00002 358.6 6.90002 358.9V359.4L7.30002 359.7C9.00002 361.2 11.3 361.9 14 361.9C16.7 361.9 18.9 361.2 20.6 359.7L21 359.4V358.9C21 358.6 21 357.9 20.9 356.9C22.8 356.8 24.3 356.1 25.6 355L26 354.9ZM18.1 341.9C18.1 341.6 18.6 341.2 18.8 341.2C19.2 341.2 19.6 341.1 20 341.1C20.4 341.1 20.8 341.1 21.2 341.2C21.5 341.2 21.9 341.7 21.9 341.9C22 342.7 22 343.5 21.9 344.3C21.9 344.6 21.4 345 21.2 345C20.4 345.1 19.6 345.1 18.8 345C18.5 345 18.1 344.5 18.1 344.3C18 343.5 18 342.7 18.1 341.9ZM12.2 344.9C12.2 344.6 12.7 344.2 12.9 344.2C13.3 344.2 13.7 344.1 14.1 344.1C14.5 344.1 14.9 344.1 15.3 344.2C15.6 344.2 16 344.7 16 344.9C16.1 345.7 16.1 346.5 16 347.3C16 347.6 15.5 348 15.3 348C14.5 348.1 13.7 348.1 12.9 348C12.6 348 12.2 347.5 12.2 347.3C12.1 346.5 12.1 345.7 12.2 344.9ZM6.20002 341.9C6.20002 341.6 6.70002 341.2 6.90002 341.2C7.30002 341.2 7.70002 341.1 8.10002 341.1C8.50002 341.1 8.90002 341.1 9.30002 341.2C9.60002 341.2 10 341.7 10 341.9C10.1 342.7 10.1 343.5 10 344.3C10 344.6 9.50002 345 9.30002 345C8.50002 345.1 7.70002 345.1 6.90002 345C6.60002 345 6.20002 344.5 6.20002 344.3C6.10002 343.5 6.10002 342.7 6.20002 341.9ZM7.40002 352.1C7.30002 352.5 7.30002 353.6 7.30002 355C6.10002 354.9 5.10002 354.5 4.20002 353.9C4.20002 353.5 4.20002 353 4.20002 352.4C4.20002 351.1 4.30002 349.2 4.30002 348.8C4.40002 348.1 4.90002 347.5 5.20002 347.5C6.90002 347 8.60002 347 10.2 347.3C10.2 347.4 10.2 347.5 10.2 347.5C10.2 347.8 10.4 348.2 10.6 348.5C10.4 348.5 10.2 348.6 10.1 348.6C8.70003 349 7.50002 350.5 7.40002 352.1ZM14.1 360.1C12.1 360.1 10.4 359.6 9.10002 358.6C9.10002 358.1 9.10002 357.4 9.20002 356.7C9.20002 355.2 9.30002 352.8 9.40002 352.3C9.50002 351.4 10.2 350.6 10.6 350.5C13 349.9 15.4 349.9 17.7 350.5C18.2 350.7 18.9 351.5 19 352.3C19.1 352.8 19.1 355.1 19.2 356.6C19.2 357.4 19.2 358.1 19.3 358.5C17.6 359.6 16 360.1 14.1 360.1ZM20.9 355C20.9 353.5 20.8 352.5 20.8 352.1C20.6 350.6 19.5 349.1 18.2 348.6C18 348.6 17.8 348.5 17.7 348.5C17.9 348.2 18 347.9 18.1 347.5C18.1 347.4 18.1 347.4 18.1 347.3C19.8 347 21.4 347 23 347.5C23.4 347.6 23.9 348.3 23.9 348.9C24 349.3 24 351.2 24 352.5C24 353.1 24 353.6 24 354C23.1 354.6 22.1 354.9 20.9 355Z" fill="#BDBEBE"/>
<path d="M34.7 315.2L39.5 318.5L34.7 321.8L35.8 319.3L36.2 318.5L35.8 317.7L34.7 315.2ZM31.9 311C31.3 311 31 311.4 31 311.9C31 312.2 31.1 312.4 31.3 312.6L34 318.5L31.3 324.5C31.1 324.6 31 324.9 31 325.1C31 325.7 31.4 326 31.9 326C32.1 326 32.2 326 32.3 325.9L43 318.5L32.4 311.2C32.3 311.1 32.1 311 31.9 311Z" fill="#00A2FF"/>
<path d="M49.3 322.1L48.1 324.7L47.7 325.5L48.1 326.3L49.2 328.8L44.4 325.5L49.3 322.1ZM52 318C51.8 318 51.7 318 51.6 318.1L41 325.5L51.6 332.8C51.8 332.9 51.9 333 52.1 333C52.7 333 53 332.6 53 332.1C53 331.8 52.9 331.6 52.7 331.4L50 325.5L52.7 319.5C52.8 319.3 52.9 319.1 52.9 318.9C52.9 318.4 52.5 318 52 318Z" fill="#00A2FF"/>
<path d="M6.7 315.2L11.5 318.5L6.7 321.8L7.8 319.3L8.2 318.5L7.8 317.7L6.7 315.2ZM3.9 311C3.3 311 3 311.4 3 311.9C3 312.2 3.1 312.4 3.3 312.6L6 318.5L3.3 324.5C3.1 324.6 3 324.9 3 325.1C3 325.7 3.4 326 3.9 326C4.1 326 4.2 326 4.3 325.9L15 318.5L4.4 311.2C4.3 311.1 4.1 311 3.9 311Z" fill="#BDBEBE"/>
<path d="M21.3 322.1L20.1 324.7L19.7 325.5L20.1 326.3L21.2 328.8L16.4 325.5L21.3 322.1ZM24 318C23.8 318 23.7 318 23.6 318.1L13 325.5L23.6 332.8C23.8 332.9 23.9 333 24.1 333C24.7 333 25 332.6 25 332.1C25 331.8 24.9 331.6 24.7 331.4L22 325.5L24.7 319.5C24.8 319.3 24.9 319.1 24.9 318.9C24.9 318.4 24.5 318 24 318Z" fill="#BDBEBE"/>
<path d="M51.9 296.3C51.8 295.7 51.3 295.1 50.8 294.9C50.8 292.8 50.6 290.6 50.2 288.5C50 287.3 48.9 286.1 47.6 285.7C47.1 285.6 46.5 285.5 46 285.4V283.8C46 282.8 45.2 282 44.2 282H39.8C38.8 282 38 282.8 38 283.8V285.4C37.5 285.5 36.9 285.6 36.4 285.7C35.2 286 34.1 287.2 33.8 288.5C33.4 290.6 33.3 292.8 33.2 294.9C32.6 295.1 32.2 295.7 32.1 296.3C31.9 297.9 31.9 299.4 32.1 301C32.2 301.7 32.7 302.3 33.4 302.4C33.5 302.4 33.7 302.5 33.8 302.5V302.6C34 303.8 35.1 305 36.4 305.4C38.3 305.8 40.1 306.1 42 306.1C43.9 306.1 45.8 305.9 47.6 305.4C48.8 305.1 49.9 303.9 50.2 302.6V302.5C50.3 302.5 50.5 302.4 50.6 302.4C51.2 302.2 51.8 301.6 51.9 301C52.2 299.4 52.2 297.8 51.9 296.3ZM40 284.5C40 284.2 40.2 284 40.5 284H43.5C43.8 284 44 284.2 44 284.5V285.1C42.7 285 41.3 285 40 285.1V284.5ZM50 300.5C49.8 300.5 49.6 300.6 49.3 300.6L48.5 300.7L48.3 301.8C48.3 302 48.2 302.2 48.2 302.3C48.1 302.8 47.6 303.3 47.1 303.5C43.7 304.3 40.2 304.3 36.8 303.5C36.3 303.4 35.8 302.8 35.7 302.4C35.7 302.2 35.6 302 35.6 301.9L35.4 300.8L34.6 300.7C34.3 300.7 34.1 300.6 33.9 300.6C33.7 299.3 33.7 298.1 33.9 296.8C34 296.8 34.1 296.8 34.2 296.7L35 296.6V295.7C35 293.4 35.2 291.1 35.6 288.8C35.7 288.3 36.2 287.8 36.7 287.6C40.1 286.8 43.6 286.8 47 287.6C47.5 287.7 48 288.3 48.1 288.7C48.5 291 48.7 293.3 48.7 295.6V296.5L49.5 296.6C49.6 296.6 49.7 296.6 49.8 296.7C50.1 298 50.1 299.2 50 300.5Z" fill="#00B06F"/>
<path d="M44.1 295.2C42.7 295 41.4 295 40 295.2C39.2 295.3 38.4 296.1 38.2 296.9C38 298.3 38 299.8 38.2 301.2C38.3 302 39.2 302.7 40 302.9C40.7 303 41.4 303.1 42 303.1C42.7 303.1 43.4 303 44.1 302.9C44.9 302.8 45.7 302 45.9 301.2C46.1 299.8 46.1 298.3 45.9 296.9C45.7 296.1 44.9 295.3 44.1 295.2ZM43.9 300.7C43.9 300.8 43.8 300.8 43.8 300.8C42.6 301 41.4 301 40.4 300.8C40.4 300.8 40.3 300.7 40.2 300.7C40 299.5 40 298.4 40.2 297.2C40.2 297.1 40.3 297.1 40.3 297.1C41.4 296.9 42.6 296.9 43.7 297.1C43.7 297.1 43.8 297.2 43.9 297.2C44.1 298.4 44.1 299.6 43.9 300.7Z" fill="#00B06F"/>
<path d="M45 290H39C38.4 290 38 290.4 38 291C38 291.6 38.4 292 39 292H45C45.6 292 46 291.6 46 291C46 290.4 45.6 290 45 290Z" fill="#00B06F"/>
<path d="M23.9 296.3C23.8 295.7 23.3 295.1 22.8 294.9C22.8 292.8 22.6 290.6 22.2 288.5C22 287.3 20.9 286.1 19.6 285.7C19.1 285.6 18.5 285.5 18 285.4V283.8C18 282.8 17.2 282 16.2 282H11.8C10.8 282 10 282.8 10 283.8V285.4C9.50001 285.5 8.90001 285.6 8.40001 285.7C7.20001 286 6.10001 287.2 5.80001 288.5C5.40001 290.6 5.30001 292.8 5.20001 294.9C4.60001 295.1 4.20001 295.7 4.10001 296.3C3.90001 297.9 3.90001 299.4 4.10001 301C4.20001 301.7 4.70001 302.3 5.40001 302.4C5.50001 302.4 5.70001 302.5 5.80001 302.5V302.6C6.00001 303.8 7.10001 305 8.40001 305.4C10.3 305.8 12.1 306.1 14 306.1C15.9 306.1 17.8 305.9 19.6 305.4C20.8 305.1 21.9 303.9 22.2 302.6V302.5C22.3 302.5 22.5 302.4 22.6 302.4C23.2 302.2 23.8 301.6 23.9 301C24.1 299.4 24.1 297.8 23.9 296.3ZM12 284.5C12 284.2 12.2 284 12.5 284H15.5C15.8 284 16 284.2 16 284.5V285.1C14.7 285 13.3 285 12 285.1V284.5ZM21.9 300.5C21.7 300.5 21.5 300.6 21.2 300.6L20.4 300.7L20.2 301.8C20.2 302 20.1 302.2 20.1 302.3C20 302.8 19.5 303.3 19 303.5C15.6 304.3 12.1 304.3 8.70001 303.5C8.20001 303.4 7.70001 302.8 7.60001 302.4C7.60001 302.2 7.50001 302 7.50001 301.9L7.30001 300.8L6.50001 300.7C6.20001 300.7 6.00001 300.6 5.80001 300.6C5.60001 299.3 5.60001 298.1 5.80001 296.8C5.90001 296.8 6.00001 296.8 6.10001 296.7L6.90001 296.6V295.7C6.90001 293.4 7.10001 291.1 7.50001 288.8C7.60001 288.3 8.10001 287.8 8.60001 287.6C12 286.8 15.5 286.8 18.9 287.6C19.4 287.7 19.9 288.3 20 288.7C20.4 291 20.6 293.3 20.6 295.6V296.5L21.4 296.6C21.5 296.6 21.6 296.6 21.7 296.7C22.1 298 22.1 299.2 21.9 300.5Z" fill="#BDBEBE"/>
<path d="M16 295.2C14.6 295 13.3 295 11.9 295.2C11.1 295.3 10.3 296.1 10.1 296.9C9.90001 298.3 9.90001 299.8 10.1 301.2C10.2 302 11.1 302.7 11.9 302.9C12.6 303 13.3 303.1 13.9 303.1C14.6 303.1 15.3 303 16 302.9C16.8 302.8 17.6 302 17.8 301.2C18 299.8 18 298.3 17.8 296.9C17.7 296.1 16.9 295.3 16 295.2ZM15.9 300.7C15.9 300.8 15.8 300.8 15.8 300.8C14.6 301 13.4 301 12.4 300.8C12.4 300.8 12.3 300.7 12.2 300.7C12 299.5 12 298.4 12.2 297.2C12.2 297.1 12.3 297.1 12.3 297.1C13.4 296.9 14.6 296.9 15.7 297.1C15.7 297.1 15.8 297.2 15.9 297.2C16 298.4 16 299.6 15.9 300.7Z" fill="#BDBEBE"/>
<path d="M17 290H11C10.4 290 10 290.4 10 291C10 291.6 10.4 292 11 292H17C17.6 292 18 291.6 18 291C18 290.4 17.6 290 17 290Z" fill="#BDBEBE"/>
<path d="M51.9 271.9C51.2 271.5 50.1 271.2 49 271V271.8C49.6 272 50.2 272.1 50.7 272.4C53.5 273.8 50.5 275.9 42 275.9C33.5 275.9 30.6 273.9 33.3 272.4C33.7 272.2 34.3 272 35 271.8V271C33.9 271.3 32.8 271.6 32.1 271.9C28.3 273.8 31.1 277 42 277C52.9 277 55.7 273.8 51.9 271.9Z" fill="#F6B702"/>
<path d="M36.5 270V271.7C36.5 273.2 37.7 274.5 39.3 274.5H41.2C41.7 274.5 42.1 274.1 42.1 273.6C42.1 274.1 42.5 274.5 43 274.5H44.9C46.4 274.5 47.7 273.3 47.7 271.7V270C49.1 269.9 50.2 268.7 50.2 267.3V265.5C50.2 264.8 50.1 264.1 50 263.4C49.8 261.9 48.2 260.5 46.6 260.2C46.7 259.1 46.7 258 46.6 256.8C46.4 255.5 45.2 254.3 43.9 254.1C42.8 254 41.7 254 40.5 254.1C39.2 254.3 38 255.5 37.8 256.8C37.7 257.9 37.7 259 37.8 260.2C36.2 260.5 34.6 261.9 34.4 263.4C34.3 264.1 34.2 264.8 34.2 265.5V267.3C34 268.7 35.1 269.9 36.5 270ZM39.5 257.1C39.6 256.7 40.1 256.1 40.5 256.1C41.5 256 42.5 256 43.4 256.1C43.8 256.2 44.4 256.7 44.4 257.1C44.5 258.1 44.5 259 44.4 260C44.3 260.4 43.9 260.9 43.4 261C42.4 261.1 41.5 261.1 40.5 261C40 260.9 39.6 260.4 39.5 260C39.4 259 39.4 258.1 39.5 257.1ZM36 265.5C36 264.9 36 264.3 36.1 263.7C36.2 263.1 37.1 262.3 37.9 262.2C40.5 262 43.4 262 46 262.2C46.8 262.3 47.7 263.2 47.8 263.7C48 264.8 47.9 266.3 47.9 267.3C47.9 268.2 47 268.1 46.4 268.1V265.1C46.4 264.8 46.2 264.6 45.9 264.6C45.6 264.6 45.4 264.8 45.4 265.1V268.1C45.4 268.8 45.4 271.1 45.4 271.8C45.4 272.2 45.1 272.6 44.6 272.6H44C43.4 272.6 43 272.2 43 271.6V269.6C43 269 42.6 268.6 42 268.6C41.4 268.6 41 269 41 269.6V271.6C41 272.2 40.6 272.6 40 272.6H39.2C38.8 272.6 38.4 272.2 38.4 271.8C38.4 271.1 38.4 268.8 38.4 268.1V265.1C38.4 264.8 38.2 264.6 37.9 264.6C37.6 264.6 37.4 264.8 37.4 265.1V268.1H36.8C36.4 268.1 36 267.8 36 267.3V265.5V265.5Z" fill="#F6B702"/>
<path d="M23.9 271.9C23.2 271.5 22.1 271.2 21 271V271.8C21.6 272 22.2 272.1 22.7 272.4C25.5 273.8 22.5 275.9 14 275.9C5.5 275.9 2.6 273.9 5.3 272.4C5.7 272.2 6.3 272 7 271.8V271C5.9 271.3 4.8 271.6 4.1 271.9C0.299997 273.8 3.1 277 14 277C24.9 277 27.7 273.8 23.9 271.9Z" fill="#BDBEBE"/>
<path d="M8.50001 270V271.7C8.50001 273.2 9.70001 274.5 11.3 274.5H13.2C13.7 274.5 14.1 274.1 14.1 273.6C14.1 274.1 14.5 274.5 15 274.5H16.9C18.4 274.5 19.7 273.3 19.7 271.7V270C21.1 269.9 22.2 268.7 22.2 267.3V265.5C22.2 264.8 22.1 264.1 22 263.4C21.8 261.9 20.2 260.5 18.6 260.2C18.7 259.1 18.7 258 18.6 256.8C18.4 255.5 17.2 254.3 15.9 254.1C14.8 254 13.7 254 12.5 254.1C11.2 254.3 10 255.5 9.80001 256.8C9.70001 257.9 9.70001 259 9.80001 260.2C8.20001 260.5 6.60001 261.9 6.40001 263.4C6.30001 264.1 6.20001 264.8 6.20001 265.5V267.3C6.00001 268.7 7.10001 269.9 8.50001 270ZM11.5 257.1C11.6 256.7 12.1 256.1 12.5 256.1C13.5 256 14.5 256 15.4 256.1C15.8 256.2 16.4 256.7 16.4 257.1C16.5 258.1 16.5 259 16.4 260C16.3 260.4 15.9 260.9 15.4 261C14.4 261.1 13.5 261.1 12.5 261C12 260.9 11.6 260.4 11.5 260C11.4 259 11.4 258.1 11.5 257.1ZM8.00001 265.5C8.00001 264.9 8.00001 264.3 8.10001 263.7C8.20001 263.1 9.10001 262.3 9.90001 262.2C12.5 262 15.4 262 18 262.2C18.8 262.3 19.7 263.2 19.8 263.7C20 264.8 19.9 266.3 19.9 267.3C19.9 268.2 19 268.1 18.4 268.1V265.1C18.4 264.8 18.2 264.6 17.9 264.6C17.6 264.6 17.4 264.8 17.4 265.1V268.1C17.4 268.8 17.4 271.1 17.4 271.8C17.4 272.2 17.1 272.6 16.6 272.6H16C15.4 272.6 15 272.2 15 271.6V269.6C15 269 14.6 268.6 14 268.6C13.4 268.6 13 269 13 269.6V271.6C13 272.2 12.6 272.6 12 272.6H11.2C10.8 272.6 10.4 272.2 10.4 271.8C10.4 271.1 10.4 268.8 10.4 268.1V265.1C10.4 264.8 10.2 264.6 9.90001 264.6C9.60001 264.6 9.40001 264.8 9.40001 265.1V268.1H8.80001C8.40001 268.1 8.00001 267.8 8.00001 267.3V265.5Z" fill="#BDBEBE"/>
<path d="M46.7 241.1C46.5 239.6 45.1 238.1 43.5 237.7C43.3 237.7 43.1 237.6 42.9 237.6C43.4 237 43.8 236.4 43.8 235.7C44 234.3 44 232.9 43.8 231.4C43.5 229.9 42 228.4 40.6 228.2C39.2 228 37.8 228 36.4 228.2C34.9 228.4 33.4 229.9 33.1 231.5C32.9 232.9 32.9 234.3 33.1 235.7C33.2 236.4 33.6 237 34 237.6C33.8 237.6 33.6 237.7 33.4 237.7C31.9 238 30.4 239.6 30.2 241.1C30 242 30 242.8 29.9 243.7L29.8 244.3L30.3 244.6C32.7 246.2 35.5 247.1 38.4 247.1C41.3 247.1 44.1 246.3 46.5 244.6L47 244.2L46.9 243.6C46.9 242.7 46.9 241.9 46.7 241.1ZM35.1 231.6C35.2 230.9 36.1 230.1 36.6 230.1C37.2 230 37.8 230 38.4 230C39 230 39.7 230 40.3 230.1C40.9 230.2 41.7 231 41.8 231.6C41.9 232.8 41.9 234.1 41.8 235.3C41.7 236 40.8 236.8 40.3 236.8C39.1 236.9 37.8 236.9 36.6 236.8C35.9 236.7 35.1 235.8 35.1 235.3C35 234.2 35 232.9 35.1 231.6ZM32.1 243.2C32.2 242.6 32.2 242 32.4 241.3C32.5 240.6 33.3 239.7 34 239.6C37 238.9 40.1 238.9 43.1 239.6C43.9 239.8 44.7 240.6 44.8 241.4C44.9 242 45 242.6 45 243.2C41.1 245.6 35.9 245.5 32.1 243.2Z" fill="#00A2FF"/>
<path d="M54 243.6C53.9 242.8 53.8 241.9 53.7 241.1C53.5 239.6 52.1 238.1 50.5 237.7C50.3 237.7 50.1 237.6 49.9 237.6C50.4 237 50.8 236.4 50.8 235.7C51 234.3 51 232.9 50.8 231.4C50.5 229.9 49 228.4 47.6 228.2C46.5 228.1 45.4 228.1 44.4 228.1C44.9 228.7 45.4 229.3 45.6 230.1C46.2 230.1 46.8 230.1 47.4 230.2C48 230.3 48.8 231.1 48.9 231.7C49 232.9 49 234.2 48.9 235.4C48.8 236.1 47.9 236.9 47.4 236.9C47.1 236.9 46.8 236.9 46.5 237C47.3 237.6 47.9 238.4 48.3 239.3C48.9 239.4 49.5 239.5 50.1 239.6C50.9 239.8 51.7 240.6 51.8 241.4C51.9 242 52 242.6 52 243.2C51.1 243.7 50.2 244.1 49.2 244.4L49.4 246.5C50.9 246.1 52.3 245.4 53.6 244.6L54.1 244.2L54 243.6Z" fill="#00A2FF"/>
<path d="M18.7 241.1C18.5 239.6 17.1 238.1 15.5 237.7C15.3 237.7 15.1 237.6 14.9 237.6C15.4 237 15.8 236.4 15.8 235.7C16 234.3 16 232.9 15.8 231.4C15.5 229.9 14 228.4 12.6 228.2C11.2 228 9.80002 228 8.40002 228.2C6.90002 228.4 5.40002 229.9 5.10002 231.5C4.90002 232.9 4.90002 234.3 5.10002 235.7C5.20002 236.4 5.60002 237 6.00002 237.6C5.80002 237.6 5.60002 237.7 5.40002 237.7C3.90002 238 2.40002 239.6 2.20002 241.1C2.00002 242 2.00002 242.8 1.90002 243.7L2.00002 244.2L2.50002 244.5C4.90002 246.1 7.70003 247 10.6 247C13.5 247 16.3 246.2 18.7 244.5L19.2 244.1L19.1 243.5C18.9 242.7 18.9 241.9 18.7 241.1ZM7.10002 231.6C7.20002 230.9 8.10002 230.1 8.60002 230.1C9.20002 230 9.80002 230 10.4 230C11 230 11.7 230 12.3 230.1C12.9 230.2 13.7 231 13.8 231.6C13.9 232.8 13.9 234.1 13.8 235.3C13.7 236 12.8 236.8 12.3 236.8C11.1 236.9 9.80002 236.9 8.60002 236.8C7.90002 236.7 7.10002 235.8 7.10002 235.3C7.00002 234.2 7.00002 232.9 7.10002 231.6ZM4.10002 243.2C4.20002 242.6 4.20002 242 4.40002 241.3C4.50002 240.6 5.30002 239.7 6.00002 239.6C9.00002 238.9 12.1 238.9 15.1 239.6C15.9 239.8 16.7 240.6 16.8 241.4C16.9 242 17 242.6 17 243.2C13.1 245.6 7.90002 245.5 4.10002 243.2Z" fill="#BDBEBE"/>
<path d="M26 243.6C25.9 242.8 25.8 241.9 25.7 241.1C25.5 239.6 24.1 238.1 22.5 237.7C22.3 237.7 22.1 237.6 21.9 237.6C22.4 237 22.8 236.4 22.8 235.7C23 234.3 23 232.9 22.8 231.4C22.5 229.9 21 228.4 19.6 228.2C18.5 228.1 17.4 228.1 16.4 228.1C16.9 228.7 17.4 229.3 17.6 230.1C18.2 230.1 18.8 230.1 19.4 230.2C20 230.3 20.8 231.1 20.9 231.7C21 232.9 21 234.2 20.9 235.4C20.8 236.1 19.9 236.9 19.4 236.9C19.1 236.9 18.8 236.9 18.5 237C19.3 237.6 19.9 238.4 20.3 239.3C20.9 239.4 21.5 239.5 22.1 239.6C22.9 239.8 23.7 240.6 23.8 241.4C23.9 242 24 242.6 24 243.2C23.1 243.7 22.2 244.1 21.2 244.4L21.4 246.5C22.9 246.1 24.3 245.4 25.6 244.6L26.1 244.2L26 243.6Z" fill="#BDBEBE"/>
<path d="M45 199H39C34.6 199 31 202.6 31 207V221H45C49.4 221 53 217.4 53 213V207C53 202.5 49.4 199 45 199ZM51 213C51 216.3 48.3 219 45 219H33V207C33 203.7 35.7 201 39 201H45C48.3 201 51 203.7 51 207V213Z" fill="#00A2FF"/>
<path d="M47 209H37C36.4 209 36 209.4 36 210C36 210.5 36.4 210.9 36.9 211H37H47C47.6 211 48 210.6 48 210C48 209.4 47.6 209 47 209Z" fill="#00A2FF"/>
<path d="M47 205H37C36.4 205 36 205.4 36 206C36 206.5 36.4 206.9 36.9 207H37H47C47.6 207 48 206.6 48 206C48 205.4 47.6 205 47 205Z" fill="#00A2FF"/>
<path d="M42 213H37C36.4 213 36 213.4 36 214C36 214.6 36.4 215 37 215H42C42.6 215 43 214.6 43 214C43 213.4 42.6 213 42 213Z" fill="#00A2FF"/>
<path d="M17 199H11C6.6 199 3 202.6 3 207V221H17C21.4 221 25 217.4 25 213V207C25 202.5 21.4 199 17 199ZM23 213C23 216.3 20.3 219 17 219H5V207C5 203.7 7.7 201 11 201H17C20.3 201 23 203.7 23 207V213Z" fill="#BDBEBE"/>
<path d="M19 209H9C8.4 209 8 209.4 8 210C8 210.5 8.4 210.9 8.9 211H9H19C19.6 211 20 210.6 20 210C20 209.4 19.6 209 19 209Z" fill="#BDBEBE"/>
<path d="M19 205H9C8.4 205 8 205.4 8 206C8 206.5 8.4 206.9 8.9 207H9H19C19.6 207 20 206.6 20 206C20 205.4 19.6 205 19 205Z" fill="#BDBEBE"/>
<path d="M14 213H9C8.4 213 8 213.4 8 214C8 214.6 8.4 215 9 215H14C14.6 215 15 214.6 15 214C15 213.4 14.6 213 14 213Z" fill="#BDBEBE"/>
<path d="M52 189C51.9 187.9 51.8 186.8 51.6 185.8C51.4 184 49.8 182.2 48 181.7C47.6 181.6 47.2 181.5 46.8 181.5C47.4 180.9 47.8 180.1 47.9 179.4C48.1 177.8 48.1 176.3 47.9 174.7C47.6 173 46 171.5 44.4 171.2C42.8 171 41.3 171 39.7 171.2C38 171.4 36.4 173.1 36.2 174.7C36 176.3 36 177.8 36.2 179.4C36.3 180.1 36.7 180.9 37.3 181.5C36.9 181.6 36.5 181.6 36.1 181.7C34.4 182.1 32.7 184 32.5 185.8C32.3 186.9 32.2 188 32.1 189.1L32 189.7L32.5 190C35.3 192 38.6 193.1 42.1 193.1C45.5 193.1 48.8 192 51.7 190L52.2 189.7L52 189ZM38.1 174.9C38.2 174.1 39.2 173.2 39.9 173.1C40.6 173 41.3 173 42 173C42.7 173 43.4 173 44.1 173.1C44.9 173.2 45.7 174.1 45.9 174.9C46.1 176.2 46.1 177.7 45.9 179.1C45.8 179.9 44.8 180.8 44.1 180.9C42.7 181.1 41.3 181.1 39.9 180.9C39.1 180.8 38.2 179.8 38.1 179.1C38 177.7 38 176.3 38.1 174.9ZM42 191C39.2 191 36.4 190.2 34 188.6C34.1 187.7 34.2 186.9 34.3 186C34.4 185 35.5 183.8 36.4 183.6C40.1 182.8 43.8 182.8 47.4 183.6C48.4 183.9 49.4 185 49.6 186.1C49.7 186.9 49.8 187.8 49.9 188.6C47.6 190.2 44.8 191 42 191Z" fill="#F6B702"/>
<path d="M24 189C23.9 187.9 23.8 186.8 23.6 185.8C23.4 184 21.8 182.2 20 181.7C19.6 181.6 19.2 181.5 18.8 181.5C19.4 180.9 19.8 180.1 19.9 179.4C20.1 177.8 20.1 176.3 19.9 174.7C19.6 173 18 171.5 16.4 171.2C14.8 171 13.3 171 11.7 171.2C10 171.4 8.4 173.1 8.2 174.7C8 176.3 8 177.8 8.2 179.4C8.3 180.1 8.7 180.9 9.3 181.5C8.9 181.6 8.5 181.6 8.1 181.7C6.4 182.1 4.7 184 4.5 185.8C4.2 186.9 4.1 188 4 189V189.6L4.5 189.9C7.3 191.9 10.6 193 14.1 193C17.5 193 20.8 191.9 23.7 189.9L24.2 189.6L24 189ZM10.1 174.9C10.2 174.1 11.2 173.2 11.9 173.1C12.6 173 13.3 173 14 173C14.7 173 15.4 173 16.1 173.1C16.9 173.2 17.7 174.1 17.9 174.9C18.1 176.2 18.1 177.7 17.9 179.1C17.8 179.9 16.8 180.8 16.1 180.9C14.7 181.1 13.3 181.1 11.9 180.9C11.1 180.8 10.2 179.8 10.1 179.1C10 177.7 10 176.3 10.1 174.9ZM14 191C11.2 191 8.4 190.2 6 188.6C6.1 187.7 6.2 186.9 6.3 186C6.4 185 7.5 183.8 8.4 183.6C12.1 182.8 15.8 182.8 19.4 183.6C20.4 183.9 21.4 185 21.6 186.1C21.7 186.9 21.8 187.8 21.9 188.6C19.6 190.2 16.8 191 14 191Z" fill="#BDBEBE"/>
<path d="M42 144.6L51 152V164C51 164 50.9 164.1 50.8 164.1H46V160.1C46 157.9 44.2 156.1 42 156.1C39.8 156.1 38 157.9 38 160.1V164.1H33.2C33.1 164.1 33 164.1 33 164V152L42 144.6ZM42 142L31 151V164C31 165.1 32 166 33.2 166H40V160C40 158.9 40.9 158 42 158C43.1 158 44 158.9 44 160V166H50.8C52 166 53 165.1 53 164V151L42 142Z" fill="#00B06F"/>
<path d="M14 144.6L23 152V164C23 164 22.9 164.1 22.8 164.1H18V160.1C18 157.9 16.2 156.1 14 156.1C11.8 156.1 10 157.9 10 160.1V164.1H5.2C5.1 164.1 5 164.1 5 164V152L14 144.6ZM14 142L3 151V164C3 165.1 4 166 5.2 166H12V160C12 158.9 12.9 158 14 158C15.1 158 16 158.9 16 160V166H22.8C24 166 25 165.1 25 164V151L14 142Z" fill="#BDBEBE"/>
</svg>
