<svg width="56" height="84" viewBox="0 0 56 84" fill="none" xmlns="http://www.w3.org/2000/svg">
<g clip-path="url(#clip0)">
<path fill-rule="evenodd" clip-rule="evenodd" d="M23.402 5.57099C25.009 6.49899 26 8.21499 26 10.071V17.927C26 19.784 25.009 21.499 23.402 22.427L16.597 26.356C14.99 27.284 13.009 27.284 11.402 26.356L4.597 22.427C2.99 21.499 2 19.784 2 17.927V10.071C2 8.21499 2.99 6.49899 4.597 5.57099L11.402 1.64299C13.009 0.714991 14.99 0.714991 16.597 1.64299L23.402 5.57099ZM12.313 3.42599L5.686 7.25199C4.642 7.85499 4 8.96799 4 10.174V17.825C4 19.03 4.642 20.144 5.686 20.747L12.313 24.572C13.357 25.175 14.642 25.175 15.686 24.572L22.313 20.747C23.357 20.144 24 19.03 24 17.825V10.174C24 8.96799 23.357 7.85499 22.313 7.25199L15.686 3.42599C14.642 2.82299 13.357 2.82299 12.313 3.42599ZM15.385 5.56399L20.614 8.58199C21.471 9.07699 22 9.99199 22 10.983V17.02C22 18.01 21.471 18.925 20.614 19.42L15.385 22.439C14.528 22.934 13.471 22.934 12.614 22.439L7.385 19.42C6.528 18.925 6 18.01 6 17.02V10.983C6 9.99199 6.528 9.07699 7.385 8.58199L12.614 5.56399C13.471 5.06899 14.528 5.06899 15.385 5.56399ZM11 17.001H17V11.001H11V17.001Z" fill="#DCDDDE"/>
<path fill-rule="evenodd" clip-rule="evenodd" d="M51.402 5.57099C53.009 6.49899 54 8.21499 54 10.071V17.927C54 19.784 53.009 21.499 51.402 22.427L44.597 26.356C42.99 27.284 41.009 27.284 39.402 26.356L32.597 22.427C30.99 21.499 30 19.784 30 17.927V10.071C30 8.21499 30.99 6.49899 32.597 5.57099L39.402 1.64299C41.009 0.714991 42.99 0.714991 44.597 1.64299L51.402 5.57099ZM40.313 3.42599L33.686 7.25199C32.642 7.85499 32 8.96799 32 10.174V17.825C32 19.03 32.642 20.144 33.686 20.747L40.313 24.572C41.357 25.175 42.642 25.175 43.686 24.572L50.313 20.747C51.357 20.144 52 19.03 52 17.825V10.174C52 8.96799 51.357 7.85499 50.313 7.25199L43.686 3.42599C42.642 2.82299 41.357 2.82299 40.313 3.42599ZM43.385 5.56399L48.614 8.58199C49.471 9.07699 50 9.99199 50 10.983V17.02C50 18.01 49.471 18.925 48.614 19.42L43.385 22.439C42.528 22.934 41.471 22.934 40.614 22.439L35.385 19.42C34.528 18.925 34 18.01 34 17.02V10.983C34 9.99199 34.528 9.07699 35.385 8.58199L40.614 5.56399C41.471 5.06899 42.528 5.06899 43.385 5.56399ZM39 17.001H45V11.001H39V17.001Z" fill="white" fill-opacity="0.7"/>
<g filter="url(#filter0_d)">
<path d="M23.402 33.574C25.009 34.502 26 36.218 26 38.074V45.93C26 47.787 25.009 49.502 23.402 50.43L16.597 54.359C14.99 55.287 13.009 55.287 11.402 54.359L4.597 50.43C2.99 49.502 2 47.787 2 45.93V38.074C2 36.218 2.99 34.502 4.597 33.574L11.402 29.646C13.009 28.718 14.99 28.718 16.597 29.646L23.402 33.574ZM12.313 31.429L5.686 35.255C4.642 35.858 4 36.971 4 38.177V45.828C4 47.033 4.642 48.147 5.686 48.75L12.313 52.575C13.357 53.178 14.642 53.178 15.686 52.575L22.313 48.75C23.357 48.147 24 47.033 24 45.828V38.177C24 36.971 23.357 35.858 22.313 35.255L15.686 31.429C14.642 30.826 13.357 30.826 12.313 31.429ZM15.385 33.567L20.614 36.585C21.471 37.08 22 37.995 22 38.986V45.023C22 46.013 21.471 46.928 20.614 47.423L15.385 50.442C14.528 50.937 13.471 50.937 12.614 50.442L7.385 47.423C6.528 46.928 6 46.013 6 45.023V38.986C6 37.995 6.528 37.08 7.385 36.585L12.614 33.567C13.471 33.072 14.528 33.072 15.385 33.567ZM11 45.004H17V39.004H11V45.004Z" fill="black"/>
</g>
<path d="M23.402 33.574C25.009 34.502 26 36.218 26 38.074V45.93C26 47.787 25.009 49.502 23.402 50.43L16.597 54.359C14.99 55.287 13.009 55.287 11.402 54.359L4.597 50.43C2.99 49.502 2 47.787 2 45.93V38.074C2 36.218 2.99 34.502 4.597 33.574L11.402 29.646C13.009 28.718 14.99 28.718 16.597 29.646L23.402 33.574ZM12.313 31.429L5.686 35.255C4.642 35.858 4 36.971 4 38.177V45.828C4 47.033 4.642 48.147 5.686 48.75L12.313 52.575C13.357 53.178 14.642 53.178 15.686 52.575L22.313 48.75C23.357 48.147 24 47.033 24 45.828V38.177C24 36.971 23.357 35.858 22.313 35.255L15.686 31.429C14.642 30.826 13.357 30.826 12.313 31.429ZM15.385 33.567L20.614 36.585C21.471 37.08 22 37.995 22 38.986V45.023C22 46.013 21.471 46.928 20.614 47.423L15.385 50.442C14.528 50.937 13.471 50.937 12.614 50.442L7.385 47.423C6.528 46.928 6 46.013 6 45.023V38.986C6 37.995 6.528 37.08 7.385 36.585L12.614 33.567C13.471 33.072 14.528 33.072 15.385 33.567ZM11 45.004H17V39.004H11V45.004Z" fill="url(#paint0_linear)"/>
<g filter="url(#filter1_i)">
<path d="M23.402 33.574C25.009 34.502 26 36.218 26 38.074V45.93C26 47.787 25.009 49.502 23.402 50.43L16.597 54.359C14.99 55.287 13.009 55.287 11.402 54.359L4.597 50.43C2.99 49.502 2 47.787 2 45.93V38.074C2 36.218 2.99 34.502 4.597 33.574L11.402 29.646C13.009 28.718 14.99 28.718 16.597 29.646L23.402 33.574ZM12.313 31.429L5.686 35.255C4.642 35.858 4 36.971 4 38.177V45.828C4 47.033 4.642 48.147 5.686 48.75L12.313 52.575C13.357 53.178 14.642 53.178 15.686 52.575L22.313 48.75C23.357 48.147 24 47.033 24 45.828V38.177C24 36.971 23.357 35.858 22.313 35.255L15.686 31.429C14.642 30.826 13.357 30.826 12.313 31.429ZM15.385 33.567L20.614 36.585C21.471 37.08 22 37.995 22 38.986V45.023C22 46.013 21.471 46.928 20.614 47.423L15.385 50.442C14.528 50.937 13.471 50.937 12.614 50.442L7.385 47.423C6.528 46.928 6 46.013 6 45.023V38.986C6 37.995 6.528 37.08 7.385 36.585L12.614 33.567C13.471 33.072 14.528 33.072 15.385 33.567ZM11 45.004H17V39.004H11V45.004Z" fill="black"/>
</g>
<path fill-rule="evenodd" clip-rule="evenodd" d="M23.402 61.574C25.009 62.502 26 64.218 26 66.074V73.93C26 75.787 25.009 77.502 23.402 78.43L16.597 82.359C14.99 83.287 13.009 83.287 11.402 82.359L4.597 78.43C2.99 77.502 2 75.787 2 73.93V66.074C2 64.218 2.99 62.502 4.597 61.574L11.402 57.646C13.009 56.718 14.99 56.718 16.597 57.646L23.402 61.574ZM12.313 59.429L5.686 63.255C4.642 63.858 4 64.971 4 66.177V73.828C4 75.033 4.642 76.147 5.686 76.75L12.313 80.575C13.357 81.178 14.642 81.178 15.686 80.575L22.313 76.75C23.357 76.147 24 75.033 24 73.828V66.177C24 64.971 23.357 63.858 22.313 63.255L15.686 59.429C14.642 58.826 13.357 58.826 12.313 59.429ZM15.385 61.567L20.614 64.585C21.471 65.08 22 65.995 22 66.986V73.023C22 74.013 21.471 74.928 20.614 75.423L15.385 78.442C14.528 78.937 13.471 78.937 12.614 78.442L7.385 75.423C6.528 74.928 6 74.013 6 73.023V66.986C6 65.995 6.528 65.08 7.385 64.585L12.614 61.567C13.471 61.072 14.528 61.072 15.385 61.567ZM11 73.004H17V67.004H11V73.004Z" fill="#DCDDDE"/>
</g>
<defs>
<filter id="filter0_d" x="-2" y="25.95" width="32" height="34.105" filterUnits="userSpaceOnUse" color-interpolation-filters="sRGB">
<feFlood flood-opacity="0" result="BackgroundImageFix"/>
<feColorMatrix in="SourceAlpha" type="matrix" values="0 0 0 0 0 0 0 0 0 0 0 0 0 0 0 0 0 0 127 0"/>
<feOffset dy="1"/>
<feGaussianBlur stdDeviation="2"/>
<feColorMatrix type="matrix" values="0 0 0 0 0 0 0 0 0 0 0 0 0 0 0 0 0 0 0.5 0"/>
<feBlend mode="normal" in2="BackgroundImageFix" result="effect1_dropShadow"/>
<feBlend mode="normal" in="SourceGraphic" in2="effect1_dropShadow" result="shape"/>
</filter>
<filter id="filter1_i" x="2" y="28.95" width="24" height="27.105" filterUnits="userSpaceOnUse" color-interpolation-filters="sRGB">
<feFlood flood-opacity="0" result="BackgroundImageFix"/>
<feBlend mode="normal" in="SourceGraphic" in2="BackgroundImageFix" result="shape"/>
<feColorMatrix in="SourceAlpha" type="matrix" values="0 0 0 0 0 0 0 0 0 0 0 0 0 0 0 0 0 0 127 0" result="hardAlpha"/>
<feOffset dy="1"/>
<feGaussianBlur stdDeviation="2"/>
<feComposite in2="hardAlpha" operator="arithmetic" k2="-1" k3="1"/>
<feColorMatrix type="matrix" values="0 0 0 0 0.996078 0 0 0 0 0.980392 0 0 0 0 0.788235 0 0 0 0.551628 0"/>
<feBlend mode="normal" in2="shape" result="effect1_innerShadow"/>
</filter>
<linearGradient id="paint0_linear" x1="14" y1="29.9021" x2="14" y2="55.055" gradientUnits="userSpaceOnUse">
<stop stop-color="#EEDFA2"/>
<stop offset="0.588539" stop-color="#A9935A"/>
<stop offset="1" stop-color="#FEE3A5"/>
</linearGradient>
<clipPath id="clip0">
<rect width="56" height="84" fill="white"/>
</clipPath>
</defs>
</svg>
